<svg xmlns="http://www.w3.org/2000/svg" viewBox="0 0 391.901 499.881"><defs><style>.a{fill:#da3731;}</style></defs><title>shuttle_icon_rgb</title><rect class="a" x="35.842" y="392.656" width="96.654" height="107.225" rx="11"/><rect class="a" x="258.65" y="392.656" width="96.654" height="107.225" rx="11"/><path class="a" d="M471.95,50.059H128.05a24.071,24.071,0,0,0-24,24V468.552a24.071,24.071,0,0,0,24,24h343.9a24.071,24.071,0,0,0,24-24V74.059A24.071,24.071,0,0,0,471.95,50.059Zm-241.8,34.735h143.47V115H230.153Zm-95.144,58.9H464.236V321.9H135.009Zm31.715,292.981a37.755,37.755,0,1,1,37.755-37.755A37.755,37.755,0,0,1,166.724,436.674Zm265.8-1.51a37.756,37.756,0,1,1,37.756-37.755A37.755,37.755,0,0,1,432.521,435.164Z" transform="translate(-104.05 -50.059)"/></svg>